<svg width="42" height="32" viewBox="0 0 42 32" fill="none" xmlns="http://www.w3.org/2000/svg">
<path fill-rule="evenodd" clip-rule="evenodd" d="M11.1074 27.847V13.1225H13.3662V27.847C13.3662 28.1474 13.4852 28.4355 13.697 28.6479C13.9088 28.8603 14.1961 28.9796 14.4957 28.9796H34.8251C35.1246 28.9796 35.4119 28.8603 35.6237 28.6479C35.8355 28.4355 35.9545 28.1474 35.9545 27.847V17.5561H38.2133V27.847C38.2133 28.7482 38.2826 30.0388 37.6472 30.6761C37.0118 31.3133 35.7237 31.2449 34.8251 31.2449H14.4957C13.597 31.2449 12.7352 30.8869 12.0998 30.2497C11.4644 29.6124 11.1074 28.7482 11.1074 27.847ZM35.9545 2.92856V10.8571L34.0707 10.5714V4.52954C34.0707 4.32162 33.9021 4.15307 33.6942 4.15307V4.15307V4.15307C33.4863 4.15307 33.3178 4.32162 33.3178 4.52954V8.11736L31.4368 6.32399V2.92856C31.4368 2.62816 31.5558 2.34007 31.7676 2.12765C31.9794 1.91524 32.2667 1.79591 32.5662 1.79591H34.8251C35.1246 1.79591 35.4119 1.91524 35.6237 2.12765C35.8355 2.34007 35.9545 2.62816 35.9545 2.92856Z" fill="#4A60A1"/>
<path fill-rule="evenodd" clip-rule="evenodd" d="M23.0634 0.663252C23.487 0.238572 24.0614 0 24.6604 0C25.2593 0 25.8338 0.238572 26.2574 0.663252L41.2718 15.7185C41.4838 15.9312 41.603 16.2196 41.603 16.5204C41.603 16.8212 41.4838 17.1097 41.2718 17.3223C41.0597 17.535 40.7721 17.6545 40.4721 17.6545C40.1722 17.6545 36.4237 17.5561 35.9531 17.5561V17.1101C35.9531 16.4182 36.514 15.8573 37.2059 15.8573V15.8573C37.5776 15.8573 37.7641 15.4081 37.5016 15.1449L24.6604 2.26483L9.64824 17.3223C9.43616 17.535 9.14853 17.6545 8.84861 17.6545C8.54869 17.6545 8.26106 17.535 8.04899 17.3223C7.83692 17.1097 7.71777 16.8212 7.71777 16.5204C7.71777 16.2196 7.83692 15.9312 8.04899 15.7185L23.0634 0.663252Z" fill="#4A60A1"/>
<path fill-rule="evenodd" clip-rule="evenodd" d="M3.57876 28.8587L3.67053 15.4235L17.0353 4.88235L28.4215 15.3069V29.5958C28.4215 29.3799 28.4215 29.1352 28.4215 28.8587V15.3069L30.3999 15.5176L30.68 28.8587V28.8587C30.68 30.5859 29.279 31.9861 27.5518 31.9861C27.4556 31.9861 27.3683 31.9861 27.2923 31.9861H6.96641C6.06795 31.9861 4.77867 32.0513 4.14337 31.4648C3.50806 30.8784 3.57876 29.6881 3.57876 28.8587Z" fill="#4A60A1"/>
<path fill-rule="evenodd" clip-rule="evenodd" d="M15.3456 3.66135C15.7692 3.23789 16.3436 3 16.9426 3C17.5416 3 18.116 3.23789 18.5396 3.66135L33.554 18.6735C33.7661 18.8856 33.8852 19.1732 33.8852 19.4731C33.8852 19.773 33.7661 20.0607 33.554 20.2727C33.3419 20.4848 33.0543 20.604 32.7544 20.604C32.4545 20.604 28.165 20.816 27.9529 20.604L16.9426 5.25834L5.64706 20.604C5.43499 20.816 1.43076 20.604 1.13084 20.604C0.830921 20.604 0.543288 20.4848 0.331215 20.2727C0.119142 20.0607 0 19.773 0 19.4731C0 19.1732 0.119142 18.8856 0.331215 18.6735L15.3456 3.66135Z" fill="#4A60A1"/>
</svg>
