<svg width="23" height="23" viewBox="0 0 23 23" fill="none" xmlns="http://www.w3.org/2000/svg">
<path d="M11.5 0.25C17.7134 0.25 22.75 5.28663 22.75 11.5C22.75 17.7134 17.7134 22.75 11.5 22.75C5.28663 22.75 0.25 17.7134 0.25 11.5C0.25 5.28663 5.28663 0.25 11.5 0.25ZM11.5 2.5C9.11305 2.5 6.82387 3.44821 5.13604 5.13604C3.44821 6.82387 2.5 9.11305 2.5 11.5C2.5 13.8869 3.44821 16.1761 5.13604 17.864C6.82387 19.5518 9.11305 20.5 11.5 20.5C13.8869 20.5 16.1761 19.5518 17.864 17.864C19.5518 16.1761 20.5 13.8869 20.5 11.5C20.5 9.11305 19.5518 6.82387 17.864 5.13604C16.1761 3.44821 13.8869 2.5 11.5 2.5ZM9.11387 7.522L11.5 9.90925L13.8861 7.522C13.9906 7.41748 14.1147 7.33456 14.2513 7.278C14.3879 7.22143 14.5342 7.19231 14.6821 7.19231C14.8299 7.19231 14.9763 7.22143 15.1128 7.278C15.2494 7.33456 15.3735 7.41748 15.478 7.522C15.5825 7.62652 15.6654 7.75061 15.722 7.88718C15.7786 8.02375 15.8077 8.17012 15.8077 8.31794C15.8077 8.46576 15.7786 8.61213 15.722 8.7487C15.6654 8.88526 15.5825 9.00935 15.478 9.11387L13.0907 11.4989L15.478 13.8861C15.6891 14.0972 15.8077 14.3835 15.8077 14.6821C15.8077 14.9806 15.6891 15.2669 15.478 15.478C15.2669 15.6891 14.9806 15.8077 14.6821 15.8077C14.3835 15.8077 14.0972 15.6891 13.8861 15.478L11.5 13.0907L9.11387 15.478C8.90278 15.6891 8.61647 15.8077 8.31794 15.8077C8.0194 15.8077 7.7331 15.6891 7.522 15.478C7.3109 15.2669 7.19231 14.9806 7.19231 14.6821C7.19231 14.3835 7.3109 14.0972 7.522 13.8861L9.90925 11.5L7.52313 9.11387C7.31203 8.90293 7.19338 8.61677 7.19327 8.31834C7.19317 8.01991 7.31162 7.73366 7.52256 7.52256C7.73351 7.31147 8.01967 7.19281 8.3181 7.19271C8.61653 7.1926 8.90278 7.31105 9.11387 7.522Z" fill="white"/>
</svg>
