<svg width="27" height="27" viewBox="0 0 27 27" fill="none" xmlns="http://www.w3.org/2000/svg">
<path d="M13.5 2.25C19.7134 2.25 24.75 7.28663 24.75 13.5C24.75 19.7134 19.7134 24.75 13.5 24.75C7.28663 24.75 2.25 19.7134 2.25 13.5C2.25 7.28663 7.28663 2.25 13.5 2.25ZM13.5 4.5C11.1131 4.5 8.82387 5.44821 7.13604 7.13604C5.44821 8.82387 4.5 11.1131 4.5 13.5C4.5 15.8869 5.44821 18.1761 7.13604 19.864C8.82387 21.5518 11.1131 22.5 13.5 22.5C15.8869 22.5 18.1761 21.5518 19.864 19.864C21.5518 18.1761 22.5 15.8869 22.5 13.5C22.5 11.1131 21.5518 8.82387 19.864 7.13604C18.1761 5.44821 15.8869 4.5 13.5 4.5V4.5ZM11.1139 9.522L13.5 11.9093L15.8861 9.522C15.9906 9.41748 16.1147 9.33456 16.2513 9.27799C16.3879 9.22143 16.5342 9.19231 16.6821 9.19231C16.8299 9.19231 16.9763 9.22143 17.1128 9.27799C17.2494 9.33456 17.3735 9.41748 17.478 9.522C17.5825 9.62652 17.6654 9.75061 17.722 9.88718C17.7786 10.0237 17.8077 10.1701 17.8077 10.3179C17.8077 10.4658 17.7786 10.6121 17.722 10.7487C17.6654 10.8853 17.5825 11.0094 17.478 11.1139L15.0907 13.4989L17.478 15.8861C17.6891 16.0972 17.8077 16.3835 17.8077 16.6821C17.8077 16.9806 17.6891 17.2669 17.478 17.478C17.2669 17.6891 16.9806 17.8077 16.6821 17.8077C16.3835 17.8077 16.0972 17.6891 15.8861 17.478L13.5 15.0907L11.1139 17.478C10.9028 17.6891 10.6165 17.8077 10.3179 17.8077C10.0194 17.8077 9.7331 17.6891 9.522 17.478C9.3109 17.2669 9.19231 16.9806 9.19231 16.6821C9.19231 16.3835 9.3109 16.0972 9.522 15.8861L11.9093 13.5L9.52313 11.1139C9.31203 10.9029 9.19338 10.6168 9.19327 10.3183C9.19317 10.0199 9.31162 9.73366 9.52256 9.52256C9.73351 9.31147 10.0197 9.19281 10.3181 9.19271C10.6165 9.1926 10.9028 9.31105 11.1139 9.522V9.522Z" fill="black"/>
</svg>
