<svg width="20" height="20" viewBox="0 0 20 20" fill="none" xmlns="http://www.w3.org/2000/svg">
<g clip-path="url(#clip0_27_1760)">
<path d="M0 2.32298C0 1.64957 0.225232 1.09402 0.675676 0.65632C1.12612 0.218604 1.71172 -0.000244141 2.43243 -0.000244141C3.14029 -0.000244141 3.71299 0.21523 4.15058 0.646219C4.60102 1.09066 4.82625 1.66977 4.82625 2.38359C4.82625 3.03005 4.60747 3.56876 4.16988 3.99975C3.71944 4.44419 3.12741 4.66641 2.39382 4.66641H2.37452C1.66666 4.66641 1.09396 4.44419 0.656371 3.99975C0.218784 3.55531 0 2.99638 0 2.32298ZM0.250965 19.9997V6.50479H4.53668V19.9997H0.250965ZM6.9112 19.9997H11.1969V12.4644C11.1969 11.993 11.2484 11.6294 11.3514 11.3735C11.5315 10.9156 11.805 10.5283 12.1718 10.2119C12.5386 9.89535 12.9987 9.73711 13.5521 9.73711C14.9936 9.73711 15.7143 10.7539 15.7143 12.7876V19.9997H20V12.2624C20 10.2691 19.5496 8.75732 18.6486 7.72702C17.7477 6.69671 16.5573 6.18156 15.0772 6.18156C13.417 6.18156 12.1236 6.92904 11.1969 8.42398V8.46439H11.1776L11.1969 8.42398V6.50479H6.9112C6.93693 6.93576 6.94981 8.27582 6.94981 10.525C6.94981 12.7741 6.93693 15.9324 6.9112 19.9997Z" fill="#4A60A1"/>
</g>
<defs>
<clipPath id="clip0_27_1760">
<rect width="20" height="20" fill="white"/>
</clipPath>
</defs>
</svg>
