<svg width="14" height="18" viewBox="0 0 14 18" fill="none" xmlns="http://www.w3.org/2000/svg">
<path fill-rule="evenodd" clip-rule="evenodd" d="M6.99993 16.6571L7.60088 15.98C8.28279 15.199 8.89612 14.4581 9.44184 13.7533L9.89231 13.159C11.7733 10.6248 12.7142 8.61333 12.7142 7.12667C12.7142 3.95333 10.1561 1.38095 6.99993 1.38095C3.84374 1.38095 1.28564 3.95333 1.28564 7.12667C1.28564 8.61333 2.2266 10.6248 4.10755 13.159L4.55803 13.7533C5.33654 14.7508 6.15104 15.7197 6.99993 16.6581V16.6571Z" stroke="#6D737A" stroke-width="0.952381" stroke-linecap="round" stroke-linejoin="round"/>
<path d="M7.00009 9.47619C8.31506 9.47619 9.38105 8.4102 9.38105 7.09524C9.38105 5.78028 8.31506 4.71429 7.00009 4.71429C5.68513 4.71429 4.61914 5.78028 4.61914 7.09524C4.61914 8.4102 5.68513 9.47619 7.00009 9.47619Z" stroke="#6D737A" stroke-width="0.952381" stroke-linecap="round" stroke-linejoin="round"/>
</svg>
