<svg width="6" height="10" viewBox="0 0 6 10" fill="none" xmlns="http://www.w3.org/2000/svg">
<path d="M0.741886 8.23333L3.97522 5L0.741886 1.76666C0.664734 1.68951 0.603535 1.59792 0.56178 1.49712C0.520026 1.39631 0.498535 1.28827 0.498535 1.17916C0.498535 1.07005 0.520026 0.962014 0.56178 0.86121C0.603535 0.760407 0.664734 0.668815 0.741886 0.591663C0.819037 0.514511 0.91063 0.453311 1.01143 0.411557C1.11224 0.369803 1.22028 0.348312 1.32939 0.348312C1.43849 0.348312 1.54653 0.369803 1.64734 0.411557C1.74814 0.453311 1.83973 0.514511 1.91689 0.591663L5.74189 4.41666C6.06689 4.74166 6.06689 5.26666 5.74189 5.59166L1.91689 9.41666C1.83979 9.49392 1.74822 9.55521 1.64741 9.59702C1.54659 9.63884 1.43853 9.66037 1.32939 9.66037C1.22025 9.66037 1.11218 9.63884 1.01137 9.59702C0.910554 9.55521 0.818981 9.49392 0.741886 9.41666C0.425219 9.09166 0.416886 8.55833 0.741886 8.23333Z" fill="#6D737A"/>
</svg>
