<svg width="23" height="23" viewBox="0 0 23 23" fill="none" xmlns="http://www.w3.org/2000/svg">
<path d="M5.69189 14.0127C7.21068 14.0127 8.44189 12.7815 8.44189 11.2627C8.44189 9.74391 7.21068 8.5127 5.69189 8.5127C4.17311 8.5127 2.94189 9.74391 2.94189 11.2627C2.94189 12.7815 4.17311 14.0127 5.69189 14.0127Z" stroke="#4A60A1" stroke-width="1.38209" stroke-linecap="round" stroke-linejoin="round"/>
<path d="M15.3169 20.2002C16.8357 20.2002 18.0669 18.969 18.0669 17.4502C18.0669 15.9314 16.8357 14.7002 15.3169 14.7002C13.7981 14.7002 12.5669 15.9314 12.5669 17.4502C12.5669 18.969 13.7981 20.2002 15.3169 20.2002Z" stroke="#4A60A1" stroke-width="1.38209" stroke-linecap="round" stroke-linejoin="round"/>
<path d="M15.3169 7.82519C16.8357 7.82519 18.0669 6.59398 18.0669 5.0752C18.0669 3.55641 16.8357 2.3252 15.3169 2.3252C13.7981 2.3252 12.5669 3.55641 12.5669 5.0752C12.5669 6.59398 13.7981 7.82519 15.3169 7.82519Z" stroke="#4A60A1" stroke-width="1.38209" stroke-linecap="round" stroke-linejoin="round"/>
<path d="M13.0052 6.56201L8.00366 9.77607" stroke="#4A60A1" stroke-width="1.38209" stroke-linecap="round" stroke-linejoin="round"/>
<path d="M8.00366 12.7493L13.0052 15.9633" stroke="#4A60A1" stroke-width="1.38209" stroke-linecap="round" stroke-linejoin="round"/>
</svg>
