<svg width="17" height="17" viewBox="0 0 17 17" fill="none" xmlns="http://www.w3.org/2000/svg">
<path d="M14.1667 2.42505C13.4027 1.65332 12.4927 1.04144 11.4897 0.625092C10.4867 0.208745 9.41093 -0.00373343 8.325 4.96414e-05C3.775 4.96414e-05 0.0666668 3.70838 0.0666668 8.25838C0.0666668 9.71672 0.45 11.1334 1.16667 12.3834L0 16.6667L4.375 15.5167C5.58333 16.175 6.94167 16.525 8.325 16.525C12.875 16.525 16.5833 12.8167 16.5833 8.26672C16.5833 6.05838 15.725 3.98338 14.1667 2.42505ZM8.325 15.125C7.09167 15.125 5.88333 14.7917 4.825 14.1667L4.575 14.0167L1.975 14.7L2.66667 12.1667L2.5 11.9084C1.81479 10.8142 1.45095 9.54942 1.45 8.25838C1.45 4.47505 4.53333 1.39172 8.31667 1.39172C10.15 1.39172 11.875 2.10838 13.1667 3.40838C13.8062 4.04502 14.3131 4.80227 14.6578 5.63624C15.0026 6.47021 15.1784 7.36431 15.175 8.26672C15.1917 12.05 12.1083 15.125 8.325 15.125ZM12.0917 9.99172C11.8833 9.89172 10.8667 9.39172 10.6833 9.31672C10.4917 9.25005 10.3583 9.21672 10.2167 9.41672C10.075 9.62505 9.68333 10.0917 9.56667 10.225C9.45 10.3667 9.325 10.3834 9.11667 10.275C8.90833 10.175 8.24167 9.95005 7.45833 9.25005C6.84167 8.70005 6.43333 8.02505 6.30833 7.81672C6.19167 7.60838 6.29167 7.50005 6.4 7.39172C6.49167 7.30005 6.60833 7.15005 6.70833 7.03338C6.80833 6.91672 6.85 6.82505 6.91667 6.69172C6.98333 6.55005 6.95 6.43338 6.9 6.33338C6.85 6.23338 6.43333 5.21672 6.26667 4.80005C6.1 4.40005 5.925 4.45005 5.8 4.44172H5.4C5.25833 4.44172 5.04167 4.49172 4.85 4.70005C4.66667 4.90838 4.13333 5.40838 4.13333 6.42505C4.13333 7.44172 4.875 8.42505 4.975 8.55838C5.075 8.70005 6.43333 10.7834 8.5 11.675C8.99167 11.8917 9.375 12.0167 9.675 12.1084C10.1667 12.2667 10.6167 12.2417 10.975 12.1917C11.375 12.1334 12.2 11.6917 12.3667 11.2084C12.5417 10.725 12.5417 10.3167 12.4833 10.225C12.425 10.1334 12.3 10.0917 12.0917 9.99172Z" fill="white"/>
</svg>
