<svg
  width="267"
  height="205"
  viewBox="0 0 267 205"
  fill="none"
  xmlns="http://www.w3.org/2000/svg"
>
  <path
    fill-rule="evenodd"
    clip-rule="evenodd"
    d="M71.085 178.216V83.9815H85.541V178.216C85.541 180.138 86.3026 181.982 87.6581 183.341C89.0136 184.701 90.8521 185.465 92.7691 185.465H222.874C224.791 185.465 226.629 184.701 227.985 183.341C229.34 181.982 230.102 180.138 230.102 178.216V112.356H244.558V178.216C244.558 183.983 245.001 192.243 240.935 196.322C236.868 200.4 228.625 199.962 222.874 199.962H92.7691C87.0181 199.962 81.5027 197.671 77.4361 193.593C73.3695 189.515 71.085 183.983 71.085 178.216ZM230.102 18.7423V69.4839L218.046 67.6555V27.579C218.046 27.0267 217.598 26.579 217.046 26.579H215.637H214.227C213.675 26.579 213.227 27.0267 213.227 27.579V51.9497L201.19 40.4725V18.7423C201.19 16.8198 201.951 14.9761 203.307 13.6167C204.662 12.2572 206.501 11.4935 208.418 11.4935H222.874C224.791 11.4935 226.629 12.2572 227.985 13.6167C229.34 14.9761 230.102 16.8198 230.102 18.7423Z"
    fill="white"
  />
  <path
    fill-rule="evenodd"
    clip-rule="evenodd"
    d="M147.601 4.2447C150.312 1.52682 153.988 0 157.821 0C161.655 0 165.331 1.52682 168.042 4.2447L264.131 100.596C265.489 101.957 266.251 103.803 266.251 105.728C266.251 107.653 265.489 109.499 264.131 110.86C262.774 112.221 260.933 112.986 259.014 112.986C257.095 112.986 233.104 112.356 230.093 112.356V104.484C230.093 102.827 231.436 101.484 233.093 101.484H242.14C243.03 101.484 243.476 100.408 242.848 99.7779L157.821 14.4945L61.7463 110.86C60.3891 112.221 58.5483 112.986 56.6288 112.986C54.7094 112.986 52.8686 112.221 51.5114 110.86C50.1541 109.499 49.3917 107.653 49.3917 105.728C49.3917 103.803 50.1541 101.957 51.5114 100.596L147.601 4.2447Z"
    fill="white"
  />
  <path
    fill-rule="evenodd"
    clip-rule="evenodd"
    d="M22.9035 184.766L23.4909 98.7833L109.023 31.3216L181.893 98.0367V189.484C181.893 188.102 181.893 186.536 181.893 184.766V98.0367L194.555 99.3857L196.347 184.766C196.347 186.63 196.347 189.134 196.347 191.78C196.347 198.96 190.526 204.781 183.346 204.781C179.952 204.781 176.683 204.781 174.666 204.781H44.5839C38.8339 204.781 30.5828 205.198 26.5169 201.445C22.4511 197.692 22.9035 190.074 22.9035 184.766Z"
    fill="white"
  />
  <path
    fill-rule="evenodd"
    clip-rule="evenodd"
    d="M98.2093 23.5074C100.92 20.7973 104.597 19.2748 108.43 19.2748C112.263 19.2748 115.939 20.7973 118.65 23.5074L214.74 119.583C216.097 120.94 216.86 122.781 216.86 124.7C216.86 126.619 216.097 128.46 214.74 129.817C213.383 131.175 211.542 131.937 209.622 131.937C207.703 131.937 180.251 133.294 178.894 131.937L108.43 33.7278L36.1402 131.937C34.783 133.294 9.15659 131.937 7.23717 131.937C5.31775 131.937 3.47695 131.175 2.11972 129.817C0.762486 128.46 0 126.619 0 124.7C0 122.781 0.762486 120.94 2.11972 119.583L98.2093 23.5074Z"
    fill="white"
  />
</svg>
